<svg width="25" height="24" viewBox="0 0 25 24" fill="none" xmlns="http://www.w3.org/2000/svg">
<path d="M13.1665 7C13.1665 5.89543 14.0619 5 15.1665 5H16.1665C16.7188 5 17.1665 4.55228 17.1665 4C17.1665 3.44772 16.7188 3 16.1665 3H15.1665C12.9574 3 11.1665 4.79086 11.1665 7V9H8.6665C8.11422 9 7.6665 9.44772 7.6665 10C7.6665 10.5523 8.11422 11 8.6665 11H11.1665V20C11.1665 20.5523 11.6142 21 12.1665 21C12.7188 21 13.1665 20.5523 13.1665 20V11H15.6665C16.2188 11 16.6665 10.5523 16.6665 10C16.6665 9.44772 16.2188 9 15.6665 9H13.1665V7Z" fill="#6F767E"/>
</svg>
