<svg width="25" height="24" viewBox="0 0 25 24" fill="none" xmlns="http://www.w3.org/2000/svg">
<path fill-rule="evenodd" clip-rule="evenodd" d="M12.333 15C13.9899 15 15.333 13.6569 15.333 12C15.333 10.3431 13.9899 9 12.333 9C10.6762 9 9.33301 10.3431 9.33301 12C9.33301 13.6569 10.6762 15 12.333 15ZM12.333 17C15.0944 17 17.333 14.7614 17.333 12C17.333 9.23858 15.0944 7 12.333 7C9.57158 7 7.33301 9.23858 7.33301 12C7.33301 14.7614 9.57158 17 12.333 17Z" fill="#6F767E"/>
<path d="M18.333 7C18.333 7.55228 17.8853 8 17.333 8C16.7807 8 16.333 7.55228 16.333 7C16.333 6.44772 16.7807 6 17.333 6C17.8853 6 18.333 6.44772 18.333 7Z" fill="#6F767E"/>
<path fill-rule="evenodd" clip-rule="evenodd" d="M16.333 4H8.33301C6.12387 4 4.33301 5.79086 4.33301 8V16C4.33301 18.2091 6.12387 20 8.33301 20H16.333C18.5421 20 20.333 18.2091 20.333 16V8C20.333 5.79086 18.5421 4 16.333 4ZM8.33301 2C5.0193 2 2.33301 4.68629 2.33301 8V16C2.33301 19.3137 5.0193 22 8.33301 22H16.333C19.6467 22 22.333 19.3137 22.333 16V8C22.333 4.68629 19.6467 2 16.333 2H8.33301Z" fill="#6F767E"/>
</svg>
